<svg width="399" height="378" viewBox="0 0 399 378" fill="none" xmlns="http://www.w3.org/2000/svg">
<path d="M1.53235 265.426C9.15402 301.594 30.334 312.713 47.4103 308.604C80.4335 300.659 162.546 300.068 237.527 350.568C336.835 417.454 372.804 350.589 351.515 272.384C330.226 194.18 331.855 119.338 378.894 86.5605C425.932 53.7829 385.436 -18.4 281.22 29.9142C213.872 61.1366 171.823 43.7306 150.502 27.5091C130.407 12.2185 107.923 -4.03548 83.1662 0.901233C53.1261 6.893 37.6794 28.9886 70.4264 90.6739C116.832 178.088 -15.5513 184.357 1.53235 265.426Z" fill="#FCFCFC"/>
<path d="M199.754 257.129L202.56 260.453L201.717 286.415L87.7652 309.221C86.9245 309.391 86.0587 309.393 85.2173 309.227C84.3759 309.062 83.5753 308.733 82.8613 308.258C82.1473 307.784 81.5338 307.173 81.056 306.462C80.5782 305.751 80.2454 304.952 80.0766 304.112L46.7438 137.915C46.5736 137.076 46.5711 136.211 46.7364 135.371C46.9017 134.531 47.2317 133.732 47.7072 133.019C48.1827 132.307 48.7945 131.696 49.5074 131.22C50.2202 130.745 51.0201 130.415 51.861 130.25L173.236 105.942L167.924 124.431C167.924 124.431 177.637 142.73 179.517 145.7L170.585 184.288L196.966 210.383L188.6 243.851L199.754 257.129Z" fill="#312C76"/>
<path d="M182.034 215.216L87.9568 234.069C87.6705 234.127 87.485 234.405 87.5423 234.692L90.3198 248.551C90.3771 248.837 90.6557 249.023 90.9419 248.965L185.019 230.112C185.305 230.055 185.49 229.776 185.433 229.49L182.656 215.631C182.598 215.344 182.32 215.159 182.034 215.216Z" fill="white"/>
<path d="M188.095 244.09L199.17 257.569L99.6488 277.928C98.806 278.098 97.9314 277.921 97.216 277.435C96.5007 276.949 96.0027 276.194 95.8309 275.334L94.1418 266.698C94.0563 266.272 94.0543 265.832 94.1359 265.405C94.2175 264.978 94.381 264.571 94.6171 264.209C94.8531 263.846 95.157 263.535 95.5113 263.293C95.8656 263.051 96.2633 262.884 96.6814 262.799L188.095 244.09Z" fill="white"/>
<path d="M392.185 108.886L348.371 272.316C347.92 273.982 346.827 275.401 345.33 276.266C343.834 277.13 342.056 277.368 340.384 276.927L211.036 242.389L224.912 221.069L223.35 215.611L218.473 198.603L218.477 198.587L241.411 173.199L228.675 135.916L253.876 106.62L252.739 79.8983L266.773 68.6502L387.584 100.905C389.253 101.356 390.675 102.45 391.538 103.946C392.4 105.443 392.633 107.219 392.185 108.886Z" fill="#312C76"/>
<path d="M363.196 110.987L339.677 104.694C334.037 103.184 328.241 106.533 326.732 112.173L320.438 135.692C318.929 141.332 322.278 147.128 327.918 148.637L351.437 154.93C357.077 156.44 362.873 153.091 364.382 147.451L370.675 123.932C372.185 118.292 368.836 112.496 363.196 110.987Z" fill="white"/>
<path d="M244.819 209.175L242.552 217.855C242.323 218.719 241.768 219.455 241.008 219.904C240.248 220.352 239.345 220.475 238.497 220.246L222.768 215.964L217.816 198.323L242.488 205.046C242.909 205.159 243.303 205.356 243.648 205.625C243.993 205.895 244.282 206.231 244.499 206.615C244.716 206.999 244.856 207.423 244.911 207.862C244.966 208.302 244.935 208.748 244.819 209.175Z" fill="white"/>
<path d="M194.167 95.5791C193.549 94.9136 193.216 94.0372 193.239 93.1344C193.262 92.2316 193.638 91.3727 194.289 90.7384L218.328 66.3744C219.764 64.919 222.097 64.8845 223.461 66.2987L225.362 68.2698C226.725 69.6835 226.57 71.9774 225.021 73.3149L199.081 95.7079C198.403 96.3157 197.513 96.6416 196.598 96.6176C195.682 96.5936 194.812 96.2216 194.167 95.5791Z" fill="#373788"/>
<path d="M180.055 87.1047C179.803 86.9842 179.577 86.8135 179.389 86.6023C179.202 86.391 179.056 86.1433 178.96 85.8734C178.864 85.6034 178.82 85.3165 178.831 85.029C178.842 84.7415 178.907 84.4591 179.023 84.1978L187.482 64.1421C187.719 63.5688 188.166 63.1167 188.723 62.8853C189.281 62.6539 189.904 62.6621 190.456 62.9079L192.012 63.64C192.277 63.7677 192.514 63.9512 192.708 64.1789C192.901 64.4066 193.047 64.6736 193.137 64.9629C193.226 65.2522 193.256 65.5576 193.227 65.8599C193.197 66.1621 193.107 66.4546 192.963 66.719L182.948 86.0436C182.682 86.5661 182.237 86.9654 181.701 87.162C181.164 87.3586 180.577 87.3381 180.055 87.1047Z" fill="#373788"/>
<path d="M164.849 90.6432C162.959 90.9711 161.145 89.3848 160.737 87.0473L153.486 45.5444C153.053 43.0651 154.363 40.7091 156.367 40.3613L159.162 39.877C161.166 39.5296 163.059 41.3304 163.324 43.8385L167.78 85.826C168.032 88.1907 166.738 90.3157 164.849 90.6432Z" fill="#373788"/>
</svg>
