<?xml version="1.0" standalone="no"?>
<!DOCTYPE svg PUBLIC "-//W3C//DTD SVG 20010904//EN"
 "http://www.w3.org/TR/2001/REC-SVG-20010904/DTD/svg10.dtd">
<svg version="1.0" xmlns="http://www.w3.org/2000/svg"
 width="250.000000pt" height="250.000000pt" viewBox="0 0 250.000000 250.000000"
 preserveAspectRatio="xMidYMid meet">

<g transform="translate(0.000000,250.000000) scale(0.100000,-0.100000)"
fill="#000000" stroke="none">
<path d="M0 1250 l0 -1250 1250 0 1250 0 0 1250 0 1250 -1250 0 -1250 0 0
-1250z m950 861 c6 -12 10 -118 10 -275 0 -243 -1 -257 -20 -276 -19 -19 -33
-20 -276 -20 -157 0 -263 4 -275 10 -18 10 -19 24 -19 283 0 199 3 276 12 285
9 9 86 12 285 12 259 0 273 -1 283 -19z m1168 7 c9 -9 12 -86 12 -285 0 -259
-1 -273 -19 -283 -12 -6 -118 -10 -273 -10 -213 0 -257 2 -276 16 -22 15 -22
18 -22 275 0 160 4 268 10 280 10 18 24 19 283 19 199 0 276 -3 285 -12z
m-583 -868 l0 -285 -285 0 -285 0 -3 275 c-1 151 0 280 3 288 3 10 65 12 287
10 l283 -3 0 -285z m-591 -312 c14 -19 16 -63 16 -276 0 -155 -4 -261 -10
-273 -10 -18 -24 -19 -283 -19 -199 0 -276 3 -285 12 -9 9 -12 86 -12 285 0
248 2 273 18 282 10 6 120 11 279 11 259 0 262 0 277 -22z m1167 12 c18 -10
19 -24 19 -283 0 -199 -3 -276 -12 -285 -9 -9 -86 -12 -285 -12 -259 0 -273 1
-283 19 -6 12 -10 120 -10 280 0 223 2 262 16 275 13 14 52 16 275 16 160 0
268 -4 280 -10z"/>
</g>
</svg>
