<svg width="640" height="399" viewBox="0 0 640 399" fill="none" xmlns="http://www.w3.org/2000/svg">
<g clip-path="url(#clip0_1505_6252)">
<path d="M633.596 284.578C640.647 262.767 641.87 239.537 637.148 217.125C629.455 182.159 604.685 139.827 533.208 121.565C397.891 86.9793 350.889 -14.173 224.314 18.0604C224.314 18.0604 156.37 30.2044 124.22 140.75C92.0701 251.295 -33.8983 253.178 9.47752 349.425C16.5627 365.171 35.6466 382.328 63.067 398.544L576.51 396.843C611.88 354.891 622.922 318.603 633.596 284.578Z" fill="white"/>
<path d="M512.468 205.542H493.218V184.802C493.213 179.851 491.507 175.048 488.377 171.171C485.247 167.294 480.876 164.572 475.974 163.445V137.727H468.889V162.957C463.355 163.466 458.214 165.987 454.47 170.027C450.726 174.067 448.649 179.335 448.646 184.802V206.122H429.433V229.903H428.145V274.063L393.327 273.828V221.035H353.466V259.729H325.42V297.302H291.577V396.843H569.112V271.33H512.431L512.468 205.542Z" fill="#D6D7F4"/>
<path d="M115.055 260.2V210.737H133.9V184.277H140.985V210.737H158.358V260.2H177.846V289.827H208.91V188.892H273.744V396.789H231.491H213.29H167.485H146.34H91.0763V260.2H115.055Z" fill="#D6D7F4"/>
<path d="M469.276 396.3L173.761 396.517C168.392 396.517 163.243 394.42 159.447 390.686C155.65 386.953 153.518 381.889 153.518 376.609L489.556 376.356C489.561 378.976 489.039 381.572 488.022 383.994C487.004 386.416 485.511 388.616 483.627 390.469C481.743 392.322 479.505 393.791 477.042 394.792C474.58 395.792 471.94 396.305 469.276 396.3Z" fill="#3D5AC4"/>
<path d="M469.276 389.441L173.742 389.658C169.593 389.663 165.543 388.414 162.139 386.08C158.735 383.746 156.143 380.44 154.714 376.609H153.462C153.462 381.889 155.595 386.953 159.392 390.686C163.188 394.42 168.337 396.517 173.706 396.517L469.221 396.3C474.589 396.3 479.738 394.203 483.535 390.469C487.331 386.736 489.464 381.672 489.464 376.392H488.212C486.788 380.208 484.21 383.504 480.825 385.837C477.44 388.17 473.409 389.427 469.276 389.441Z" fill="#5571E9"/>
<path d="M340.584 383.143H302.416C300.618 383.143 298.894 382.442 297.621 381.193C296.348 379.944 295.63 378.25 295.625 376.482H347.374C347.365 378.249 346.646 379.94 345.374 381.188C344.102 382.435 342.38 383.138 340.584 383.143Z" fill="#27429C"/>
<path d="M472.238 376.356L170.761 376.591L170.632 197.651C170.627 195.21 171.112 192.791 172.059 190.534C173.006 188.277 174.396 186.226 176.149 184.498C177.903 182.77 179.986 181.399 182.28 180.463C184.573 179.528 187.031 179.046 189.514 179.046L453.173 178.847C455.655 178.845 458.113 179.323 460.407 180.255C462.701 181.187 464.786 182.554 466.543 184.278C468.299 186.003 469.694 188.05 470.646 190.305C471.598 192.559 472.089 194.975 472.091 197.416L472.238 376.356Z" fill="#5571E9"/>
<path d="M456.467 194.394H186.404V361.008H456.467V194.394Z" fill="#312C76"/>
<path d="M456.522 345.082H186.459V361.008H456.522V345.082Z" fill="#151247"/>
<path d="M456.394 194.394H186.33V202.303H456.394V194.394Z" fill="#151247"/>
<path opacity="0.16" d="M276.394 194.43L186.404 283.076L186.459 361.117H186.661L355.95 194.376L276.394 194.43Z" fill="#5571E9"/>
<path opacity="0.16" d="M221.333 361.099L261.212 361.062L430.501 194.303L390.621 194.339L221.333 361.099Z" fill="#5571E9"/>
<path opacity="0.16" d="M424.759 360.936L456.504 329.662L456.449 270.516L361.177 360.972L424.759 360.936Z" fill="#5571E9"/>
<path d="M472.239 265.557H170.632V298.297H472.239V265.557Z" fill="#F5D100"/>
<path d="M208.266 309.79H182.3L204.641 259.548H230.589L208.266 309.79Z" fill="white"/>
<path d="M263.604 309.79H237.656L259.997 259.548H285.945L263.604 309.79Z" fill="white"/>
<path d="M318.942 309.79H292.994L315.335 259.548H341.283L318.942 309.79Z" fill="white"/>
<path d="M374.28 309.79H348.331L370.673 259.548H396.621L374.28 309.79Z" fill="white"/>
<path d="M429.617 309.79H403.669L426.01 259.548H451.958L429.617 309.79Z" fill="white"/>
<path d="M146.414 209.035L140.507 209.253L137.065 208.185C136.294 207.93 135.458 207.934 134.689 208.196C133.919 208.458 133.26 208.963 132.814 209.633L132.391 210.266L149.616 219.623L152.874 212.601L146.414 209.035Z" fill="#14103D"/>
<path d="M149.634 219.786L132.262 210.338L132.869 209.253C132.898 209.202 132.937 209.158 132.983 209.123C133.029 209.087 133.082 209.061 133.138 209.046C133.195 209.031 133.254 209.027 133.312 209.034C133.37 209.042 133.426 209.061 133.477 209.09L150.444 218.302L149.634 219.786Z" fill="#14103D"/>
<path d="M152.966 212.601L157.511 204.837L152.966 196.855L146.414 209.017L152.966 212.601Z" fill="#EB8175"/>
<path d="M188.63 168.024C188.63 168.024 164.062 161.093 161.707 167.608C159.351 174.123 145.015 202.991 145.015 202.991L155.708 208.42L171.736 181.019L193.323 179.209L188.63 168.024Z" fill="#14103D"/>
<path d="M168.663 217.831L163.915 220.836L160.363 221.541C159.564 221.687 158.835 222.09 158.293 222.686C157.75 223.282 157.423 224.038 157.364 224.835V225.596H177.055L176.503 217.849L168.663 217.831Z" fill="#14103D"/>
<path d="M177.018 225.704H157.161V224.473C157.161 224.416 157.173 224.36 157.195 224.307C157.217 224.255 157.25 224.207 157.291 224.166C157.332 224.126 157.38 224.094 157.434 224.072C157.488 224.05 157.545 224.039 157.603 224.039H177V225.722" fill="#14103D"/>
<path d="M176.392 217.831L177.018 204.837L169.178 203.968L168.663 217.813L176.392 217.831Z" fill="#EB8175"/>
<path d="M191.943 166.92L168.792 167.952C168.792 167.952 165.461 168.133 165.682 175.789C165.903 183.444 165.884 214.302 165.884 214.302L177.018 214.682L179.134 182.376L202.322 182.087C204.723 182.086 207.073 181.403 209.088 180.118C211.103 178.834 212.697 177.003 213.677 174.847C214.487 173.103 214.712 171.151 214.321 169.273L191.943 166.92Z" fill="#231C61"/>
<path d="M169.97 162.323C169.97 164.477 168.498 164.803 166.289 164.803C164.081 164.803 162.02 164.495 162.02 162.341C162.02 161.305 162.439 160.31 163.184 159.577C163.93 158.844 164.941 158.432 165.995 158.432C167.049 158.432 168.06 158.844 168.806 159.577C169.551 160.31 169.97 161.305 169.97 162.341V162.323Z" fill="#E1AD9D"/>
<path d="M172.767 164.531H168.166C167.59 164.527 167.039 164.301 166.629 163.902C166.22 163.503 165.986 162.962 165.976 162.396C165.981 161.826 166.213 161.281 166.623 160.878C167.033 160.475 167.587 160.247 168.166 160.242H172.767C173.345 160.242 173.899 160.466 174.309 160.866C174.719 161.266 174.952 161.809 174.957 162.378C174.952 162.947 174.72 163.492 174.31 163.895C173.901 164.298 173.346 164.527 172.767 164.531Z" fill="#E1AD9D"/>
<path d="M172.602 164.984L171.056 157.581L189.955 155.554L193.746 133.836C194.133 131.864 197.022 129.42 199.047 129.8L198.458 129.637C199.501 129.879 200.424 130.478 201.061 131.327C201.698 132.175 202.008 133.218 201.936 134.271L198.255 160.26C198.125 160.948 197.796 161.584 197.306 162.092C196.816 162.599 196.187 162.956 195.495 163.12L172.602 164.984Z" fill="#C8C6F2"/>
<path d="M210.346 130.271C210.736 130.308 211.119 130.393 211.487 130.524H211.671C213.242 131.21 214.59 132.311 215.564 133.703C216.538 135.096 217.102 136.727 217.192 138.415L214.247 169.183C194.648 169.02 191.869 166.812 191.869 166.812L193.434 135.284C193.673 132.316 195.053 129.511 198.494 129.239L210.346 130.271Z" fill="#161525"/>
<path d="M188.778 164.748C188.943 166.902 187.471 167.318 185.281 167.463C183.091 167.608 180.993 167.463 180.846 165.273C180.787 164.245 181.143 163.236 181.836 162.465C182.529 161.693 183.504 161.222 184.548 161.153C185.592 161.084 186.622 161.422 187.414 162.096C188.206 162.769 188.696 163.722 188.778 164.748Z" fill="#EB8175"/>
<path d="M191.722 166.757L187.14 167.065C186.562 167.105 185.991 166.918 185.553 166.545C185.115 166.171 184.845 165.643 184.803 165.074C184.767 164.506 184.962 163.947 185.345 163.519C185.728 163.092 186.267 162.831 186.845 162.794L191.428 162.486C191.713 162.467 191.999 162.502 192.271 162.592C192.542 162.681 192.792 162.823 193.008 163.008C193.223 163.193 193.399 163.418 193.526 163.67C193.653 163.922 193.728 164.196 193.746 164.477C193.766 164.758 193.73 165.039 193.639 165.306C193.548 165.573 193.404 165.819 193.216 166.031C193.028 166.243 192.799 166.416 192.543 166.541C192.286 166.665 192.008 166.739 191.722 166.757Z" fill="#EB8175"/>
<path d="M191.52 167.228L189.495 159.989L210.088 156.731L208.911 137.89C209.082 136.816 209.623 135.833 210.444 135.105C211.265 134.377 212.315 133.948 213.419 133.891C214.479 134.067 215.44 134.608 216.131 135.417C216.822 136.226 217.198 137.25 217.192 138.307L218.682 160.875C218.605 161.565 218.328 162.218 217.885 162.757C217.441 163.296 216.849 163.698 216.18 163.916L191.52 167.228Z" fill="#D8D7FD"/>
<path d="M155.928 142.198L178.417 144.297C178.776 144.328 179.113 144.48 179.371 144.728C179.629 144.975 179.793 145.302 179.834 145.655L182.189 165.563C182.23 165.799 182.215 166.04 182.145 166.269C182.076 166.498 181.953 166.708 181.788 166.883C181.622 167.058 181.418 167.194 181.191 167.278C180.964 167.363 180.72 167.396 180.478 167.373L157.621 165.255C157.258 165.219 156.918 165.061 156.66 164.807C156.402 164.553 156.241 164.219 156.204 163.862L154.217 143.953C154.186 143.722 154.208 143.486 154.281 143.264C154.355 143.042 154.479 142.839 154.643 142.671C154.808 142.502 155.009 142.372 155.231 142.29C155.453 142.208 155.692 142.177 155.928 142.198Z" fill="#091218"/>
<path d="M154.714 142.089L177.184 144.17C177.544 144.198 177.883 144.349 178.142 144.597C178.401 144.845 178.563 145.174 178.601 145.528L180.956 165.436C181.001 165.672 180.989 165.916 180.921 166.146C180.852 166.377 180.73 166.589 180.564 166.765C180.398 166.941 180.192 167.076 179.963 167.159C179.734 167.243 179.488 167.273 179.245 167.246L156.407 165.128C156.042 165.096 155.701 164.939 155.442 164.684C155.183 164.43 155.023 164.094 154.99 163.735L153.002 143.827C152.974 143.596 152.998 143.363 153.073 143.143C153.149 142.923 153.273 142.723 153.437 142.556C153.601 142.39 153.801 142.262 154.022 142.181C154.242 142.1 154.479 142.069 154.714 142.089Z" fill="#1B2934"/>
<path d="M181.564 165.726L196.912 167.156C197.023 167.165 197.131 167.195 197.231 167.246C197.33 167.296 197.418 167.366 197.49 167.45C197.562 167.534 197.616 167.631 197.649 167.736C197.683 167.841 197.695 167.951 197.685 168.061C197.661 168.28 197.552 168.482 197.381 168.623C197.209 168.765 196.988 168.836 196.765 168.821L180.478 167.373L181.564 165.726Z" fill="#091218"/>
<path d="M167.596 154.161C167.553 154.64 167.367 155.096 167.06 155.471C166.753 155.845 166.34 156.122 165.873 156.265C165.406 156.408 164.906 156.411 164.437 156.274C163.968 156.137 163.551 155.866 163.239 155.496C162.928 155.125 162.735 154.672 162.686 154.193C162.637 153.714 162.733 153.232 162.964 152.808C163.194 152.383 163.547 152.036 163.979 151.81C164.41 151.583 164.901 151.488 165.387 151.537C166.032 151.601 166.626 151.912 167.039 152.403C167.452 152.894 167.652 153.526 167.596 154.161Z" fill="white"/>
<path d="M208.266 142.198L208.763 156.351L189.551 159.952L206.481 154.74L208.266 142.198Z" fill="#C8C6F2"/>
<path d="M198.071 128.389L199.341 131.791C199.573 132.388 199.974 132.908 200.495 133.289C201.016 133.67 201.637 133.898 202.285 133.945C202.862 133.985 203.44 133.879 203.962 133.636C204.485 133.393 204.936 133.022 205.27 132.558C205.605 132.095 205.812 131.554 205.873 130.989C205.934 130.423 205.845 129.852 205.616 129.33L203.371 124.099L198.071 128.389Z" fill="#EB8175"/>
<path d="M199.212 131.339C199.212 131.339 205.543 130.162 204.604 124.715C203.666 119.267 197.721 123.52 197.721 123.52L198.31 128.95L199.212 131.339Z" fill="#E16C5F"/>
<path d="M189.44 115.05C188.605 116.801 188.316 118.756 188.611 120.668C188.906 122.58 189.771 124.364 191.097 125.792C192.423 127.22 194.15 128.229 196.059 128.692C197.969 129.155 199.975 129.05 201.824 128.39C203.673 127.731 205.281 126.547 206.445 124.988C207.609 123.43 208.277 121.566 208.364 119.634C208.451 117.702 207.953 115.788 206.933 114.134C205.913 112.481 204.417 111.162 202.635 110.345C200.25 109.256 197.523 109.14 195.051 110.022C192.579 110.903 190.562 112.711 189.44 115.05Z" fill="#EB8175"/>
<path d="M202.12 121.186C202.12 121.186 200.556 129.004 206.408 129.185C212.26 129.366 209.076 114.507 209.076 114.507L199.875 105.349L185.704 108.788L187.121 117.837C187.121 117.837 189.367 119.014 201.531 117.041L202.12 121.186Z" fill="#231C61"/>
<path d="M196.341 115.068L200.997 121.747L205.009 117.403L196.341 115.068Z" fill="#231C61"/>
<path d="M200.556 119.376C200.32 119.87 200.239 120.422 200.323 120.962C200.407 121.501 200.652 122.004 201.028 122.406C201.403 122.808 201.892 123.091 202.432 123.219C202.971 123.347 203.538 123.314 204.058 123.125C204.579 122.935 205.031 122.598 205.355 122.155C205.68 121.713 205.864 121.185 205.883 120.639C205.902 120.094 205.756 119.555 205.463 119.091C205.169 118.628 204.742 118.261 204.236 118.036C203.566 117.749 202.808 117.729 202.122 117.978C201.436 118.228 200.875 118.728 200.556 119.376Z" fill="#EB8175"/>
<path d="M187.508 117.638C187.508 117.638 185.373 109.946 190.434 105.168C191.431 104.232 192.61 103.505 193.902 103.031C195.193 102.557 196.568 102.345 197.945 102.41C199.322 102.474 200.671 102.813 201.91 103.405C203.15 103.997 204.254 104.831 205.156 105.856C207.357 108.647 208.513 112.098 208.432 115.629L187.508 117.638Z" fill="#F5D100"/>
<path d="M188.594 117.511V112.697C188.583 112.111 188.807 111.545 189.216 111.118C189.625 110.692 190.188 110.44 190.784 110.417V110.417C191.37 110.391 191.944 110.586 192.389 110.963C192.834 111.34 193.115 111.87 193.176 112.444L193.654 117.24" stroke="#F1AB00" stroke-width="0.28" stroke-miterlimit="10"/>
<path d="M208.469 115.629L185.686 117.783" stroke="white" stroke-width="1.12" stroke-linecap="round" stroke-linejoin="round"/>
<path d="M536.796 325.01L512.983 348.086" stroke="#3D5AC4" stroke-width="2.65" stroke-miterlimit="10"/>
<path d="M536.796 300.342L512.983 323.418" stroke="#3D5AC4" stroke-width="2.65" stroke-miterlimit="10"/>
<path d="M536.796 275.674L512.983 298.768" stroke="#3D5AC4" stroke-width="2.65" stroke-miterlimit="10"/>
<path d="M536.796 251.024L512.983 274.099" stroke="#3D5AC4" stroke-width="2.65" stroke-miterlimit="10"/>
<path d="M536.796 226.356L512.983 249.431" stroke="#3D5AC4" stroke-width="2.65" stroke-miterlimit="10"/>
<path d="M536.796 201.706L512.983 224.781" stroke="#3D5AC4" stroke-width="2.65" stroke-miterlimit="10"/>
<path d="M536.796 177.037L512.983 200.113" stroke="#3D5AC4" stroke-width="2.65" stroke-miterlimit="10"/>
<path d="M536.796 152.387L512.983 175.463" stroke="#3D5AC4" stroke-width="2.65" stroke-miterlimit="10"/>
<path d="M536.796 127.719L512.983 150.795" stroke="#3D5AC4" stroke-width="2.65" stroke-miterlimit="10"/>
<path d="M536.796 103.051L512.983 126.126" stroke="#3D5AC4" stroke-width="2.65" stroke-miterlimit="10"/>
<path d="M536.796 78.4006L512.983 101.476" stroke="#3D5AC4" stroke-width="2.65" stroke-miterlimit="10"/>
<path d="M512.983 323.418H536.796" stroke="#3D5AC4" stroke-width="2.65" stroke-miterlimit="10"/>
<path d="M512.983 298.768H536.796" stroke="#3D5AC4" stroke-width="2.65" stroke-miterlimit="10"/>
<path d="M512.983 274.099H536.796" stroke="#3D5AC4" stroke-width="2.65" stroke-miterlimit="10"/>
<path d="M512.983 249.431H536.796" stroke="#3D5AC4" stroke-width="2.65" stroke-miterlimit="10"/>
<path d="M512.983 224.781H536.796" stroke="#3D5AC4" stroke-width="2.65" stroke-miterlimit="10"/>
<path d="M512.983 200.113H536.796" stroke="#3D5AC4" stroke-width="2.65" stroke-miterlimit="10"/>
<path d="M512.983 175.463H536.796" stroke="#3D5AC4" stroke-width="2.65" stroke-miterlimit="10"/>
<path d="M512.983 150.795H536.796" stroke="#3D5AC4" stroke-width="2.65" stroke-miterlimit="10"/>
<path d="M512.983 126.126H536.796" stroke="#3D5AC4" stroke-width="2.65" stroke-miterlimit="10"/>
<path d="M512.983 101.476H536.796" stroke="#3D5AC4" stroke-width="2.65" stroke-miterlimit="10"/>
<path d="M512.983 354.764V82.3462" stroke="#5571E9" stroke-width="2.65" stroke-miterlimit="10"/>
<path d="M536.796 354.764V82.3462" stroke="#5571E9" stroke-width="2.65" stroke-miterlimit="10"/>
<path d="M548.114 348.086H500.708V396.517H548.114V348.086Z" fill="#231C61"/>
<path d="M536.851 36.2131H512.081C507.711 36.2131 504.168 39.6974 504.168 43.9955V74.5638C504.168 78.8618 507.711 82.3461 512.081 82.3461H536.851C541.222 82.3461 544.765 78.8618 544.765 74.5638V43.9955C544.765 39.6974 541.222 36.2131 536.851 36.2131Z" fill="#3D5AC4"/>
<path d="M507.922 47.3257H523.877C525.468 47.3257 526.994 47.9473 528.119 49.0538C529.245 50.1603 529.877 51.661 529.877 53.2258V63.0171C529.877 64.5819 529.245 66.0826 528.119 67.1891C526.994 68.2955 525.468 68.9172 523.877 68.9172H507.922V47.3257Z" fill="#2F4DAB"/>
<path d="M355.95 84.8618L374.979 139.248" stroke="#231C61" stroke-width="2.16" stroke-miterlimit="10"/>
<path d="M342.7 78.4006L305.563 127.719" stroke="#231C61" stroke-width="2.16" stroke-miterlimit="10"/>
<path d="M283.548 155.4L321.918 204.737C326.142 210.168 334.042 211.203 339.564 207.05L389.732 169.314C395.254 165.161 396.306 157.391 392.083 151.961L353.713 102.623C349.49 97.1925 341.589 96.1572 336.067 100.311L285.9 138.046C280.378 142.199 279.325 149.969 283.548 155.4Z" fill="#F5D100"/>
<path d="M293.413 155.066L324.818 195.447C328.27 199.885 334.726 200.731 339.239 197.337L380.3 166.452C384.813 163.057 385.673 156.708 382.222 152.269L350.817 111.888C347.365 107.45 340.909 106.604 336.396 109.998L295.335 140.883C290.822 144.278 289.962 150.627 293.413 155.066Z" stroke="#231C61" stroke-width="1.11" stroke-miterlimit="10"/>
<path d="M341.136 172.078C340.142 179.318 328.843 177.924 329.836 170.594C330.83 163.264 342.148 164.676 341.136 172.078ZM345.994 131.14L341.559 161.907L332.063 160.658C333.462 150.288 334.64 140.225 336.038 129.8L345.994 131.14Z" fill="#231C61"/>
<path d="M350.521 89.4407C359.313 89.4407 366.44 82.4317 366.44 73.7855C366.44 65.1394 359.313 58.1304 350.521 58.1304C341.73 58.1304 334.603 65.1394 334.603 73.7855C334.603 82.4317 341.73 89.4407 350.521 89.4407Z" fill="#231C61"/>
<path d="M361.765 73.7856C361.769 75.977 361.112 78.1203 359.876 79.9442C358.641 81.768 356.883 83.1905 354.826 84.0316C352.768 84.8727 350.503 85.0947 348.317 84.6693C346.131 84.244 344.122 83.1905 342.545 81.6422C340.969 80.0939 339.894 78.1203 339.458 75.9712C339.022 73.8221 339.244 71.5942 340.096 69.5692C340.948 67.5442 342.391 65.8132 344.244 64.5954C346.096 63.3775 348.275 62.7274 350.503 62.7274C353.487 62.7274 356.349 63.8919 358.46 65.9652C360.572 68.0385 361.761 70.8511 361.765 73.7856Z" fill="#373482"/>
<path d="M412.944 3.02051V36.2131" stroke="#3D5AC4" stroke-width="2.65" stroke-miterlimit="10"/>
<path d="M382.671 3.02051V36.2131" stroke="#3D5AC4" stroke-width="2.65" stroke-miterlimit="10"/>
<path d="M443.088 3.02051V36.2131" stroke="#3D5AC4" stroke-width="2.65" stroke-miterlimit="10"/>
<path d="M476.6 3.02051V36.2131" stroke="#3D5AC4" stroke-width="2.65" stroke-miterlimit="10"/>
<path d="M507.867 3.02051V36.2131" stroke="#3D5AC4" stroke-width="2.65" stroke-miterlimit="10"/>
<path d="M540.274 3.02051V36.2131" stroke="#3D5AC4" stroke-width="2.65" stroke-miterlimit="10"/>
<path d="M572.111 3.02051V36.2131" stroke="#3D5AC4" stroke-width="2.65" stroke-miterlimit="10"/>
<path d="M381.107 36.2131L412.944 3.02051" stroke="#3D5AC4" stroke-width="2.65" stroke-miterlimit="10"/>
<path d="M412.944 36.2131L444.763 3.02051" stroke="#3D5AC4" stroke-width="2.65" stroke-miterlimit="10"/>
<path d="M444.763 36.2131L476.6 3.02051" stroke="#3D5AC4" stroke-width="2.65" stroke-miterlimit="10"/>
<path d="M476.6 36.2131L508.437 3.02051" stroke="#3D5AC4" stroke-width="2.65" stroke-miterlimit="10"/>
<path d="M508.437 36.2131L540.274 3.02051" stroke="#3D5AC4" stroke-width="2.65" stroke-miterlimit="10"/>
<path d="M540.274 36.2131L572.111 3.02051" stroke="#3D5AC4" stroke-width="2.65" stroke-miterlimit="10"/>
<path d="M350.521 36.2131H610.058L575.111 3.02051H377.371L350.521 36.2131Z" stroke="#5571E9" stroke-width="2.65" stroke-linecap="round" stroke-linejoin="round"/>
<path d="M350.521 36.2131V73.7855" stroke="#5571E9" stroke-width="2.65" stroke-linecap="round" stroke-linejoin="round"/>
<path d="M151.919 320.297C154.988 300.03 140.77 281.153 120.161 278.135C99.5531 275.117 80.3589 289.1 77.29 309.368C74.2211 329.635 88.4396 348.512 109.048 351.53C129.656 354.548 148.85 340.565 151.919 320.297Z" fill="#5571E9"/>
<path d="M114.614 301.627V395.92" stroke="#3D5AC4" stroke-width="1.14" stroke-linecap="round" stroke-linejoin="round"/>
<path d="M99.9465 303.546L114.614 319.726" stroke="#3D5AC4" stroke-width="1.14" stroke-linecap="round" stroke-linejoin="round"/>
<path d="M127.625 318.839C126.576 319.87 114.614 332.123 114.614 332.123" stroke="#3D5AC4" stroke-width="1.14" stroke-linecap="round" stroke-linejoin="round"/>
<path d="M1.04895 396.825H633.927" stroke="#3D5AC4" stroke-width="1.14" stroke-linecap="round" stroke-linejoin="round"/>
</g>
<defs>
<clipPath id="clip0_1505_6252">
<rect width="640" height="397.895" fill="white" transform="translate(0 0.631592)"/>
</clipPath>
</defs>
</svg>
